# xmcd
#
# Track frame offsets: 
#        150
#        14691
#        28771
#        39238
#        51384
#        63558
#        82288
#        92394
#        105628
#        115968
#        129157
#        139718
#        149952
#        160871
#        172578
#
# Disc length: 2462 seconds
#
# Revision: 0
# Processed by: cddbd v1.5.2PL0 Copyright (c) Steve Scherf et al.
# Submitted via: ExactAudioCopy v1.1
#
DISCID=ce099c0f
DTITLE=Various Artist - Country Music of Your Life: For the Good Time
DTITLE=s [CD1]
DYEAR=2015
DGENRE=Country
TTITLE0=Ronnie Milsap - There’s No Getting Over Me
TTITLE1=Elvis Presley - Are You Lonesome Tonight?
TTITLE2=Willie Nelson - Blue Eyes Crying in the Rain
TTITLE3=Bobby Bare - 500 Miles from Home
TTITLE4=Tammy Wynette - Stand By Your Man
TTITLE5=Dolly Parton and Kenny Rogers - Islands In The Stream
TTITLE6=Jim Reeves - Is It Really Over?
TTITLE7=Waylon Jennings - Amanda
TTITLE8=Charley Pride - Does My Ring Hurt Your Finger
TTITLE9=Dolly Parton - I Will Always Love You
TTITLE10=Jim Reeves - He’ll Have to Go
TTITLE11=Charley Pride - Just Between You and Me
TTITLE12=Marty Robbins - Singing the Blues
TTITLE13=Eddy Arnold - You Don’t Know Me
TTITLE14=Elvis Presley - Love Me Tender
EXTD=
EXTT0=
EXTT1=
EXTT2=
EXTT3=
EXTT4=
EXTT5=
EXTT6=
EXTT7=
EXTT8=
EXTT9=
EXTT10=
EXTT11=
EXTT12=
EXTT13=
EXTT14=
PLAYORDER=
